<svg width="31" height="52" viewBox="0 0 31 52" fill="none" xmlns="http://www.w3.org/2000/svg">
<path fill-rule="evenodd" clip-rule="evenodd" d="M7.23024 25.2998C3.98375 21.5497 1.78647 16.954 2.15364 11.8043C3.21155 -3.03336 24.2001 0.23074 28.2828 7.71952C32.3655 15.2083 31.8804 34.2042 26.6038 35.5427C24.4996 36.0764 20.0168 34.7689 15.4545 32.0627L18.3182 52H1.40909L7.23024 25.2998Z" fill="#C70C18"/>
<path fill-rule="evenodd" clip-rule="evenodd" d="M12.4915 17.2411C11.9385 16.8672 11.2778 16.64 10.5682 16.64C8.62263 16.64 7.04545 18.3473 7.04545 20.1067C7.04545 21.937 7.92374 23.3522 9.17799 23.9526C8.50811 25.2414 7.83453 26.1768 7.04545 26.3467C4.00051 26.0435 0 18.5956 0 12.48C0 5.78622 5.41231 0 15.5 0C24.5668 0 28.0047 3.67898 28.1818 6.93333C24.2965 7.98415 17.5074 8.38879 7.75 8.32V9.01333L16.2045 9.70667L17.6136 13.8667C15.3718 13.702 13.7698 15.2152 12.4915 17.2411Z" fill="black"/>
</svg>
